<?xml version="1.0" ?><!DOCTYPE svg  PUBLIC '-//W3C//DTD SVG 1.1//EN'  'http://www.w3.org/Graphics/SVG/1.1/DTD/svg11.dtd'><svg enable-background="new 0 0 512 512" height="512px" id="Layer_3" version="1.1" viewBox="0 0 512 512" width="512px" xml:space="preserve" xmlns="http://www.w3.org/2000/svg" xmlns:xlink="http://www.w3.org/1999/xlink"><g><g><path d="M414.9,349.8c-1.5-14.3-3.9-29.5-6.9-44.8c0-0.3-0.1-0.7-0.2-1c-16.9-85.3-52.4-177.3-52.9-178.4c-1-2.6-3.7-4.2-6.5-3.8     c-61.3,9.2-123.6,9.2-184.9,0c-2.8-0.4-5.5,1.1-6.5,3.8c-0.4,1.1-36,93.1-52.9,178.4c-0.1,0.3-0.2,0.7-0.2,1     c-3,15.4-5.4,30.5-6.9,44.8c-0.3,2.9,1.6,5.6,4.4,6.4L227.6,390c1.6,0.4,3.2,0.2,4.6-0.6c1.4-0.8,2.4-2.2,2.8-3.7l21-84.4     l21,84.4c0.4,1.6,1.4,2.9,2.8,3.7c0.9,0.5,2,0.8,3,0.8c0.5,0,1-0.1,1.6-0.2l126.1-33.8C413.3,355.4,415.1,352.7,414.9,349.8z      M224.8,376.8l-115.2-30.9c1.2-10.2,2.8-20.7,4.8-31.4c18.7,8.9,70.5,31.4,117.7,33.1L224.8,376.8z M256,270.4     c-2.8,0-5.2,1.9-5.8,4.6l-15.1,60.7c-47.6-0.9-103.1-26-118.3-33.3c14.7-72.4,42.6-148.9,49.8-167.9c59.4,8.4,119.5,8.4,178.9,0     c7.1,19,35,95.5,49.8,167.9c-15.2,7.3-70.6,32.4-118.3,33.3l-15.1-60.7C261.2,272.3,258.8,270.4,256,270.4z M287.2,376.8     l-7.3-29.3c47.2-1.7,98.9-24.2,117.7-33.1c2,10.7,3.6,21.3,4.8,31.4L287.2,376.8z"/><path d="M240,148.9c-2.8,1.7-3.8,5.4-2.1,8.2c0.1,0.2,11.1,18.9,3.5,35.1c-3.5,7.4-8.3,13.7-13,19.7c-7,9.1-13.7,17.8-13.7,28.4     c0,3.3,2.7,6,6,6c3.3,0,6-2.7,6-6c0-6.6,5.2-13.3,11.2-21.1c4.8-6.2,10.3-13.3,14.3-21.9c10.4-22-3.4-45.4-4-46.4     C246.6,148.2,242.9,147.2,240,148.9z"/><path d="M280.5,244.4c-2.1-8.6,0-17.1,2.6-27.9c1.6-6.3,3.3-13.5,4.5-21.8c3.6-25.3-15.4-44.1-16.2-44.9     c-2.4-2.3-6.2-2.2-8.5,0.1c-2.3,2.4-2.3,6.2,0.1,8.5c0.2,0.2,15.5,15.4,12.7,34.6c-1.1,7.7-2.7,14.3-4.3,20.6     c-2.9,11.9-5.5,22.2-2.6,33.7c0.7,2.7,3.1,4.6,5.8,4.6c0.5,0,1-0.1,1.4-0.2C279.4,250.8,281.3,247.6,280.5,244.4z"/></g></g></svg>