<?xml version="1.0" ?><!DOCTYPE svg  PUBLIC '-//W3C//DTD SVG 1.1//EN'  'http://www.w3.org/Graphics/SVG/1.1/DTD/svg11.dtd'><svg height="512px" style="enable-background:new 0 0 512 512;" version="1.1" viewBox="0 0 512 512" width="512px" xml:space="preserve" xmlns="http://www.w3.org/2000/svg" xmlns:xlink="http://www.w3.org/1999/xlink"><g id="_x38_2_x2C__moustache_x2C__Hipster_x2C__movember_x2C__glasses_x2C__men"><g><path d="M196.781,274.596c-3.373-0.032-6.872,0.371-10.43,1.268    c-21.247,5.354-38.19,31.229-54.222,55.74c-13.249,20.209-25.907,39.521-40.76,47.104c-18.541,9.47-39.152,1.052-65.368-44.938    c4.829,52.83,30.238,83.687,62.364,97.521c14.561,6.252,30.547,9.068,46.596,8.852c16.123-0.186,32.372-3.435,47.427-9.254    c38.749-14.948,69.513-47.011,69.822-88.174c0.031-5.85-0.727-11.823-2.183-17.61c-3.387-13.494-10.504-26.151-19.976-35.438    C220.765,280.537,209.222,274.688,196.781,274.596 M275.112,147.518h-49.024v8.14h10.708h0.218h47.322h1.579v-8.14h-10.711    H275.112z M84.807,240.675c0,2.104-1.67,3.806-3.745,3.806c-2.042,0-3.713-1.701-3.713-3.806v-65.799    c-2.26-7.365-3.468-15.195-3.468-23.304c0-22.006,8.928-41.968,23.366-56.39c14.424-14.423,34.354-23.336,56.391-23.336    c20.643,0,39.475,7.83,53.632,20.706c13.326,12.131,22.531,28.688,25.258,47.352h-10.23c-2.106,0-3.808,1.701-3.808,3.807v15.754    l0,0v0.092l0,0v0.093l0,0l0.018,0.093l0,0v0.094v0.03l0.014,0.093l0,0l0.014,0.093l0,0l0.018,0.093l0,0l0.014,0.094l0,0    l0.031,0.092l0,0l0.018,0.063v0.031l0.014,0.092l0,0l0.032,0.063v0.031l0.031,0.061l0,0l0.028,0.094l0,0l0.032,0.093l0,0    l0.031,0.093l0,0l0.046,0.062l0,0l0.045,0.093l0,0l0.032,0.094l0,0l0.031,0.063l0,0l0.063,0.092l0,0l0.032,0.093l0,0l0.06,0.063    l0,0l0.045,0.093l0,0l0.049,0.062l0,0l0.06,0.063l0,0l0.063,0.093l0,0l0.046,0.062l0,0l0.063,0.062l0,0l0.06,0.063v0.03    l0.063,0.063l0,0l0.063,0.062l0,0l0.077,0.063l0,0l0.06,0.063l0,0l0.063,0.061l0,0l0.063,0.063l0,0l0.077,0.062l0,0l0.077,0.031    v0.03l0.06,0.031l0,0l0.095,0.063l0,0l0.06,0.031l0,0l0.095,0.062l0,0l0.063,0.062l0,0l0.091,0.031l0,0l0.077,0.031l0,0    l0.077,0.061l0,0l0.095,0.031l0,0l0.078,0.031l0,0l0.091,0.031l0,0l0.078,0.031v0.031h0.095l0,0l0.091,0.03l0,0l0.095,0.03l0,0    l0.091,0.031l0,0l0.091,0.031l0,0h0.095l0,0l0.091,0.031l0,0h0.095l0,0l0.091,0.03l0,0h0.095l0,0h0.091v0.03h0.095l0,0h0.091    h0.109h10.23c-2.727,18.663-11.932,35.221-25.258,47.322c-14.157,12.875-32.989,20.736-53.632,20.736    c-22.036,0-41.966-8.945-56.391-23.367c-4.797-4.797-8.991-10.182-12.441-16.094V240.675z M436.746,240.675    c0,2.104-1.674,3.806-3.73,3.806c-2.042,0-3.713-1.701-3.713-3.806v-52.583c-3.808,7.365-8.729,14.082-14.533,19.869    c-14.42,14.422-34.368,23.367-56.387,23.367c-20.66,0-39.479-7.861-53.653-20.736c-13.309-12.102-22.531-28.659-25.255-47.322    h10.244h0.095h0.092l0,0H290v-0.03h0.091l0,0h0.109l0,0l0.095-0.03l0,0h0.091l0,0l0.092-0.031l0,0h0.095l0,0l0.091-0.031l0,0    l0.095-0.031l0,0l0.092-0.03l0,0l0.077-0.03l0,0h0.095v-0.031l0.091-0.031l0,0l0.077-0.031l0,0l0.095-0.031l0,0l0.077-0.031l0,0    l0.092-0.061l0,0l0.063-0.031l0,0l0.092-0.031l0,0l0.077-0.062l0,0l0.077-0.062l0,0l0.077-0.031l0,0l0.081-0.063l0,0l0.06-0.031    v-0.03l0.095-0.031l0,0l0.06-0.062l0,0l0.063-0.063l0,0l0.077-0.061l0,0l0.063-0.063l0,0l0.077-0.063l0,0l0.06-0.062l0,0    l0.063-0.063v-0.03l0.063-0.063l0,0l0.046-0.062l0,0l0.06-0.062l0,0l0.063-0.093l0,0l0.046-0.063l0,0l0.063-0.062l0,0l0.031-0.093    l0,0l0.06-0.063l0,0l0.049-0.093l0,0l0.046-0.092l0,0l0.032-0.063l0,0l0.045-0.094l0,0l0.046-0.093l0,0l0.031-0.062l0,0    l0.032-0.093l0,0l0.045-0.093l0,0l0.015-0.094l0,0l0.031-0.061v-0.031l0.031-0.063l0,0l0.032-0.092v-0.031l0.014-0.063l0,0    l0.018-0.092l0,0l0.028-0.094l0,0v-0.093l0,0l0.031-0.093l0,0v-0.093v-0.03l0.018-0.094l0,0v-0.093l0,0l0.015-0.093l0,0v-0.092    l0,0v-15.754c0-2.105-1.702-3.807-3.809-3.807h-10.244c2.724-18.663,11.946-35.221,25.255-47.352    c14.175-12.876,32.993-20.706,53.653-20.706c22.019,0,41.967,8.913,56.387,23.336c14.438,14.422,23.353,34.384,23.353,56.39    c0,5.076-0.463,10.059-1.376,14.854V240.675z M325.653,275.863c-3.56-0.896-7.058-1.3-10.431-1.268    c-12.427,0.092-23.97,5.941-33.271,15.07c-9.472,9.286-16.589,21.943-19.962,35.438c-1.456,5.787-2.229,11.761-2.196,17.61    c0.309,41.163,31.072,73.226,69.835,88.174c15.057,5.819,31.305,9.068,47.432,9.254c16.045,0.217,32.031-2.6,46.592-8.852    c32.126-13.834,57.521-44.69,62.347-97.521c-26.213,45.99-46.824,54.408-65.365,44.938c-14.855-7.583-27.497-26.896-40.741-47.104    C363.861,307.092,346.914,281.217,325.653,275.863z" style="fill-rule:evenodd;clip-rule:evenodd;"/></g></g><g id="Layer_1"/></svg>