<?xml version="1.0" ?><svg id="Layer_1" style="enable-background:new 0 0 512 512;" version="1.1" viewBox="0 0 512 512" xml:space="preserve" xmlns="http://www.w3.org/2000/svg" xmlns:xlink="http://www.w3.org/1999/xlink"><g id="XMLID_8205_"><g id="XMLID_1196_"><path d="M153.6,505.9c-15.3,0-30.5-3-43.2-8.3c-28.8-11.8-50.4-34-64.1-66c-10.2-23.9-16.4-53.6-18.8-90.9    c-1-14.8-2.2-29-3.4-42.7c-2.5-29.2-4.9-56.8-4.8-87.7c0.5-84.1,15.9-140.8,47.1-173.3c1.2-1.3,2.5-2.6,3.9-3.8    c15-13.8,35.3-22.9,58.8-26.1c22.2-3,45.5-0.4,65.5,7.3c11.7,4.5,22,10.6,30.6,18.1c37.7,32.9,30.5,94.3,22.8,128    c-19.6,86.2-22.4,114.3-8,215.8c4.2,29.7-6.3,89-29.5,110C195.5,500.2,174.5,505.9,153.6,505.9z M147.6,13.9    c-27.5,0-54.2,8.8-72,25.2c-1.2,1.1-2.4,2.3-3.5,3.4c-29.7,31-44.4,85.9-44.9,167.9c-0.2,30.5,2.2,57.9,4.7,86.9    c1.2,13.8,2.4,28,3.4,42.9c3.4,52.1,15.2,124.4,78,150.2c27.8,11.4,68.3,11.8,91.8-9.6c21-19.1,30.9-75.7,27-103.1    c-14.6-102.8-11.7-131.3,8.1-218.7c7.2-32,14.2-90.1-20.3-120.3c-7.9-6.9-17.4-12.5-28.3-16.7l0,0    C177.7,16.5,162.5,13.9,147.6,13.9z" id="XMLID_3442_"/></g><g id="XMLID_1197_"><path d="M33.5,311.2c-1.9,0-3.6-1.4-3.9-3.4C25,275.9,30,236.4,43.1,202c9.9-25.8,25.1-49.2,39.8-71.8    c3-4.7,6.2-9.5,9.2-14.2c10.6-16.7,24.3-34.8,44.8-42.8c1.8-0.7,3.8-0.9,5.8-0.7c3.8,0.5,7.1,2.7,9,6    c17.7,31.1,32.6,66.4,47,111.1c10.8,33.5,22.5,72.9,24.6,115.6c0.1,2.2-1.6,4-3.7,4.1c-2.2,0.1-4-1.6-4.1-3.7    c-2.1-41.8-13.6-80.5-24.3-113.6c-14.2-44.1-28.9-78.9-46.4-109.6c-0.6-1.1-1.8-1.9-3.1-2.1c-0.7-0.1-1.4,0-2,0.2    c-18.4,7.2-30.6,23.3-41.1,39.7c-3.1,4.8-6.2,9.6-9.3,14.3c-14.5,22.2-29.5,45.2-39,70.3C37.8,238,33,276.1,37.4,306.7    c0.3,2.2-1.2,4.2-3.3,4.5C33.9,311.1,33.7,311.2,33.5,311.2z" id="XMLID_3441_"/></g><g id="XMLID_1476_"><path d="M358.4,506c-20.9,0-41.9-5.7-56.9-19.3c-23.2-21.1-33.7-80.4-29.5-110c14.4-101.5,11.5-129.6-8-215.8    c-7.6-33.7-14.8-95.1,22.8-128c8.6-7.5,18.9-13.6,30.6-18.1c20.1-7.8,43.4-10.4,65.5-7.3c23.4,3.2,43.8,12.2,58.8,26.1    c1.3,1.2,2.6,2.5,3.9,3.8c31.2,32.5,46.6,89.2,47.1,173.3c0.2,30.9-2.2,58.5-4.8,87.7c-1.2,13.7-2.4,27.9-3.4,42.7    c-2.4,37.3-8.6,67-18.8,90.9c-13.7,32-35.3,54.2-64.1,66C388.9,503,373.7,506,358.4,506z M364.4,13.9c-15,0-30.1,2.6-44.2,8l0,0    c-10.8,4.2-20.4,9.8-28.3,16.7c-34.6,30.2-27.6,88.4-20.3,120.3c19.8,87.4,22.7,115.9,8.1,218.7c-3.9,27.4,6,84,27,103.1    c23.5,21.4,64,21,91.8,9.6c62.8-25.8,74.6-98.1,78-150.2c1-14.8,2.2-29.1,3.4-42.9c2.5-29,4.9-56.4,4.7-86.9    c-0.5-82-15.2-136.9-44.9-167.9c-1.1-1.2-2.3-2.3-3.5-3.4C418.6,22.8,391.9,13.9,364.4,13.9z" id="XMLID_3300_"/></g><g id="XMLID_1475_"><path d="M478.5,311.2c-0.2,0-0.4,0-0.6,0c-2.2-0.3-3.6-2.3-3.3-4.5c4.5-30.6-0.4-68.7-13.1-101.8    c-9.6-25-24.5-48-39-70.3c-3-4.7-6.2-9.5-9.3-14.3c-10.5-16.4-22.7-32.6-41.1-39.7c-0.6-0.2-1.3-0.3-2-0.2c-1.3,0.2-2.5,1-3.1,2.1    c-17.4,30.7-32.1,65.5-46.4,109.6c-10.6,33.1-22.2,71.8-24.3,113.6c-0.1,2.2-1.9,3.8-4.1,3.7c-2.2-0.1-3.8-2-3.7-4.1    c2.1-42.7,13.8-82.1,24.6-115.6c14.4-44.6,29.3-79.9,47-111.1c1.9-3.3,5.2-5.5,9-6c2-0.3,4,0,5.8,0.7c20.5,8,34.2,26.1,44.8,42.8    c3,4.8,6.2,9.6,9.2,14.2c14.7,22.6,29.9,45.9,39.8,71.8C482,236.4,487,276,482.4,307.9C482.1,309.8,480.4,311.2,478.5,311.2z" id="XMLID_3299_"/></g></g></svg>