<?xml version="1.0" ?><svg id="Line" style="enable-background:new 0 0 128 128;" version="1.1" viewBox="0 0 128 128" xml:space="preserve" xmlns="http://www.w3.org/2000/svg" xmlns:xlink="http://www.w3.org/1999/xlink"><g><path d="M125.667,46.622c-4.754-5.118-12.71-8.236-17.319-9.711c-5.475-12.616-17.997-15.288-24.231-15.814   c-5.29-3.845-10.955-5.531-16.911-5.003c-10.03,0.891-19.035,7.996-24.824,13.8c-6.22,6.237-10.05,12.174-10.21,12.423   c-0.173,0.27-0.206,0.605-0.09,0.903c0.116,0.298,0.368,0.522,0.677,0.604c0.024,0.006,0.316,0.087,0.814,0.247   c-1.542,0.739-2.913,1.467-4.114,2.177c-0.115-0.867-0.245-1.766-0.396-2.713c1.228-1.883,1.949-4.125,1.949-6.536   c0-6.617-5.383-12-12-12s-12,5.383-12,12c0,4.897,2.951,9.111,7.165,10.974c1.874,2.775,4.483,6.331,7.064,8.844   c-0.112,0.068-0.227,0.132-0.338,0.203H7.771l-3.127-9.289c-0.176-0.522-0.745-0.809-1.267-0.628   c-0.523,0.176-0.805,0.743-0.629,1.267l3.356,9.97c0.137,0.406,0.519,0.681,0.948,0.681h11.247   c-2.319,2.089-3.767,4.238-3.878,4.406c-0.017,0.026-0.032,0.054-0.047,0.081C12.18,64.323,9.013,66.606,9.013,73   c0,1.85,0.075,3.344,0.227,4.583c-3.86,1.745-9.318,5.946-8.034,15.55c1.08,8.075,5.021,12.762,8.137,15.271   c3.392,2.731,6.522,3.533,6.654,3.566c0.08,0.02,0.161,0.029,0.242,0.029c0.254,0,0.502-0.097,0.69-0.276   c0.248-0.237,0.357-0.584,0.29-0.92c-0.87-4.344-1.242-9.579-0.406-10.926c0.208-0.062,0.511-0.16,0.871-0.291   C20.348,111,21.059,111,21.953,111c0.4,0,0.768-0.201,1.093-0.599c1.379-1.686,3.92-9.674,2.569-17.069   c0.146-0.26,0.287-0.526,0.414-0.804c1.594-3.485,1.235-7.635-1.031-12.33c0.78-1.646,1.163-3.78,1.156-6.367   c0.673-0.442,1.361-1.022,2.061-1.713c0.358,2.922,1.287,8.298,3.471,11.41c-1.174,2.005-0.792,5.035,1.15,8.853   c2.657,5.226,8.221,11.618,10.859,11.617c0.049,0,0.098-0.002,0.145-0.007c1.49-0.143,2.221-1.748,2.171-4.773   c-0.078-4.827-2.612-15.858-6.436-17.865c0.426-2.318,0.607-5.825,0.254-11.168c-0.016-0.239-0.046-0.474-0.087-0.707   c1.004,0.422,2.172,0.792,3.49,1.107c0.31,1.131,0.942,2.127,1.793,2.887c0.007,0.39,0.033,0.799,0.102,1.26   c0.085,0.392,1.885,8.565,5.401,12.341c-0.804,1.537-0.953,4.11,1.739,8.223c3.176,4.853,9.742,10.698,12.675,10.698   c0.151,0,0.292-0.016,0.423-0.047c1.454-0.355,1.947-2.044,1.465-5.02c-0.765-4.725-4.8-15.135-8.851-16.716   c0.109-2.015-0.114-4.948-0.944-9.221c4.784-0.055,10.545-1.106,14.894-2.081c0.414,0.551,0.829,1.103,1.238,1.674   C73.359,74.852,73.665,75,73.98,75c0.133,0,0.267-0.026,0.395-0.082c0.14-0.06,2.387-1.04,5.481-2.875   c3.09,4.019,7.174,6.179,11.568,6.179c1.606,0,3.253-0.285,4.905-0.869c3.969-1.403,7.823-4.584,10.589-9.382   c6.225-0.303,14.493-9.31,18.966-14.796C127.473,51.224,127.382,48.468,125.667,46.622z M122.449,46.321   C120.895,50.282,116.304,53,111.013,53c-0.018,0-0.036-0.002-0.054-0.002c0.069-1.622,0.065-3.303-0.061-5.069   c-0.231-3.246-0.81-6.091-1.639-8.604C113.137,40.673,118.5,42.966,122.449,46.321z M108.902,48.071   c0.349,4.904-0.135,9.203-1.187,12.877c-3,0.084-6.011-0.311-8.965-1.219c-1.257-0.387-2.469-0.879-3.646-1.422   c1.713-2.635,2.884-5.346,3.462-8.081c1.502-7.099-0.802-14.41-6.823-21.764c1.692-0.645,3.518-1.081,5.455-1.296   C102.919,30.599,108.101,36.817,108.902,48.071z M94.243,25.639c-1.35,0.301-2.642,0.708-3.867,1.222   c-0.225-0.252-0.441-0.504-0.674-0.757c-0.864-0.933-1.74-1.8-2.628-2.605C89.232,23.881,91.724,24.532,94.243,25.639z    M67.386,18.087c7.46-0.665,14.474,2.494,20.847,9.377c4.705,5.081,7.516,10.106,8.434,15.015   c-8.27,8.292-24.637,12.9-41.222,11.14c-9.459-7.065-17.721-10.265-20.848-11.314C37.871,37.627,51.53,19.49,67.386,18.087z    M36.256,45.036c4.048,1.582,11.176,4.904,19.065,10.994c-3.164-0.071-5.867,0.003-8.169,0.177C44.331,52.312,39.839,50,35.013,50   c-1.754,0-3.455,0.307-5.078,0.895c-0.048-0.766-0.124-1.599-0.215-2.462C31.448,47.347,33.642,46.206,36.256,45.036z M34.013,69   c-2.206,0-4-1.794-4-4s1.794-4,4-4s4,1.794,4,4S36.218,69,34.013,69z M29.921,55.367c0.065-0.695,0.091-1.482,0.085-2.344   C31.593,52.356,33.271,52,35.013,52c3.777,0,7.317,1.635,9.769,4.437c-5.237,0.62-7.959,1.776-9.296,2.607   C33.735,57.177,31.874,55.946,29.921,55.367z M19.013,27c5.177,0,9.446,3.954,9.949,9H9.063C9.567,30.954,13.836,27,19.013,27z    M23.912,38c-0.465,2.279-2.484,4-4.899,4s-4.434-1.721-4.899-4H23.912z M9.063,38h3.029c0.488,3.386,3.401,6,6.92,6   s6.432-2.614,6.92-6h3.029c-0.503,5.046-4.773,9-9.949,9S9.567,43.046,9.063,38z M17.223,48.852C17.809,48.94,18.403,49,19.013,49   c3.242,0,6.182-1.297,8.343-3.393c0.569,4,0.771,7.197,0.593,9.396c-0.466-0.034-0.934-0.043-1.409-0.006   c-1.192,0.089-2.328,0.404-3.398,0.851C21.062,53.943,18.875,51.155,17.223,48.852z M22.049,108.115   c-0.546-1.555-1.408-4.658-2.498-9.332c1.376-0.683,2.988-1.701,4.368-3.161C24.401,100.925,22.976,105.961,22.049,108.115z    M24.216,91.685c-2.172,4.77-8.162,6.33-8.222,6.346c-0.175,0.044-0.335,0.135-0.463,0.262c-1.836,1.831-1.156,7.804-0.588,11.197   c-3.183-1.338-10.271-5.522-11.756-16.622C2.16,85.178,5.891,81.438,9.627,79.615c0.825,2.936,2.55,3.582,5.586,4.082   c0.496,0.082,1.03,0.169,1.604,0.284c0.671,0.135,1.319,0.201,1.938,0.201c1.709,0,3.203-0.508,4.388-1.505   c0.196-0.165,0.373-0.355,0.551-0.544C25.249,85.813,25.43,89.022,24.216,91.685z M21.854,81.146   c-1.149,0.966-2.711,1.261-4.646,0.873c-0.599-0.12-1.155-0.212-1.671-0.297c-3.476-0.572-4.525-0.745-4.525-8.723   c0-3.516,1.031-5.886,3.038-7.106c0.099,1.184,0.479,2.531,1.127,3.8c0.854,1.674,2.877,4.58,6.827,5.244   c0.244,0.041,0.49,0.062,0.74,0.062c0.458,0,0.926-0.085,1.401-0.222C24.02,77.793,23.24,79.981,21.854,81.146z M22.336,72.966   c-3.086-0.519-4.694-2.842-5.377-4.181c-0.958-1.874-1.094-3.674-0.83-4.313c0.467-0.681,4.999-7.065,10.56-7.481   c2.081-0.153,4.093,0.579,6.006,2.16c-2.676,0.603-4.682,2.994-4.682,5.849c0,0.806,0.162,1.575,0.452,2.278   c-0.224,0.607-0.366,1.294-0.419,2.074C25.844,71.967,23.873,73.228,22.336,72.966z M30.035,69.48   c1.06,0.942,2.451,1.52,3.978,1.52c1.409,0,2.704-0.492,3.729-1.308c0.043,0.205,0.077,0.412,0.091,0.623   c0.691,10.486-0.762,13.516-1.627,13.652c-0.705,0.106-1.345-0.069-1.95-0.553c-2.904-2.319-4.049-10.492-4.243-13.38   C30.013,69.842,30.023,69.66,30.035,69.48z M42.201,89.488c2.05,6.349,2.117,11.93,1.464,12.512   c-1.28-0.052-7.116-5.86-9.668-11.852c-0.559-1.313-1.278-3.492-0.812-5.049c0.805,0.591,1.677,0.901,2.609,0.901   c0.238,0,0.479-0.02,0.723-0.059c0.555-0.088,1.701-0.273,2.53-2.563C39.921,84.119,41.104,86.093,42.201,89.488z M43.04,68.466   c-1.375-0.365-2.527-0.792-3.446-1.277c0.267-0.679,0.419-1.416,0.419-2.189c0-1.969-0.957-3.714-2.427-4.809   c2.48-1.119,8.167-2.626,20.343-2.07c1.203,1.006,2.417,2.08,3.635,3.22c-3.812,0.654-7.01,1.485-9.545,2.474   C51.134,63.3,50.109,63,49.013,63C45.884,63,43.311,65.407,43.04,68.466z M49.013,65c2.206,0,4,1.794,4,4s-1.794,4-4,4   s-4-1.794-4-4S46.807,65,49.013,65z M49.013,75c2.152,0,4.037-1.143,5.096-2.849c0.279,0.432,0.484,0.905,0.593,1.412   c2.151,9.969,1.179,13.077,0.364,13.327c-0.674,0.208-1.322,0.121-1.981-0.266c-3.022-1.77-5.226-8.945-5.915-11.916   C47.752,74.896,48.37,75,49.013,75z M61.683,91.906c2.919,5.954,3.783,11.431,3.224,12.094c-1.36,0.156-8.454-5.256-11.618-10.869   c-0.812-1.441-1.578-3.326-1.135-4.74c0.717,0.404,1.453,0.611,2.201,0.611c0.43,0,0.863-0.066,1.299-0.2   c0.505-0.155,1.524-0.47,2.039-2.517C58.674,86.926,60.121,88.721,61.683,91.906z M56.611,72.986   c-0.274-1.13-0.857-2.14-1.69-2.972c0.057-0.33,0.092-0.667,0.092-1.013c0-1.391-0.48-2.67-1.277-3.688   c2.577-0.898,5.807-1.648,9.63-2.235c2.429,2.405,4.852,5.093,7.213,8.082C66.321,72.081,60.962,72.999,56.611,72.986z    M74.308,72.747c-5.139-7.043-10.685-12.572-15.99-16.888C59.724,55.946,61.126,56,62.513,56c13.854,0,26.806-4.189,34.456-11.034   c0.091,1.628-0.02,3.243-0.357,4.84C93.884,62.722,77.917,71.021,74.308,72.747z M95.662,75.468   c-5.237,1.851-10.443,0.179-14.11-4.467c1.152-0.733,2.374-1.561,3.624-2.492c3.597-2.679,6.534-5.551,8.765-8.537   c1.356,0.646,2.763,1.22,4.221,1.669c2.896,0.891,5.849,1.34,8.797,1.34c0.032,0,0.065-0.002,0.097-0.003   C104.62,69.604,100.224,73.855,95.662,75.468z M124.333,51.912c-6.387,7.836-12.289,12.831-16.277,13.877   c1.411-3.06,2.382-6.679,2.764-10.795c0.065,0.001,0.128,0.006,0.192,0.006c5.791,0,10.884-2.909,12.978-7.229   c0.069,0.072,0.143,0.14,0.211,0.212C125.23,49.091,125.286,50.743,124.333,51.912z"/><path d="M60.742,30.49c9.848-6.866,9.536-7.567,9.175-8.381c-0.375-0.846-1.232-1.893-3.181-2.08   c-5.53-0.547-16.092,6.357-19.952,11.887c-2.186,3.13-1.948,5.236-1.364,6.453c0.227,0.473,0.607,0.626,1.013,0.626   c0.54,0,1.125-0.271,1.456-0.424C50.46,37.384,56.354,33.55,60.742,30.49z M48.424,33.061C52.052,27.864,61.517,22,66.095,22   c0.156,0,0.306,0.006,0.45,0.021c0.696,0.066,1.077,0.285,1.299,0.521C65.572,24.981,50.69,35.14,47.025,36.786   C46.901,35.566,47.676,34.132,48.424,33.061z"/></g></svg>